# Blender 3.1.2
# www.blender.org
mtllib mesh.mtl
o Cube
v 0.684456 1.000000 -0.684456
v 1.000000 -1.000000 -1.000000
v 0.684456 1.000000 0.684456
v 1.000000 -1.000000 1.000000
v -0.684456 1.000000 -0.684456
v -1.000000 -1.000000 -1.000000
v -0.684456 1.000000 0.684456
v -1.000000 -1.000000 1.000000
v 1.000000 1.000000 1.000000
v -1.000000 1.000000 1.000000
v 1.000000 1.000000 -1.000000
v -1.000000 1.000000 -1.000000
v 0.462566 1.883389 0.462566
v -0.462566 1.883389 0.462566
v 0.462566 1.883389 -0.462566
v -0.462566 1.883389 -0.462566
v 0.684456 1.883389 0.684456
v -0.684456 1.883389 0.684456
v 0.684456 1.883389 -0.684456
v -0.684456 1.883389 -0.684456
v 0.462566 3.201231 0.462566
v -0.462566 3.201231 0.462566
v 0.462566 3.201231 -0.462566
v -0.462566 3.201231 -0.462566
v 1.007578 3.401154 1.007578
v -1.007578 3.401154 1.007578
v 1.007578 3.401154 -1.007578
v -1.007578 3.401154 -1.007578
v 0.943569 3.598936 0.943569
v -0.943569 3.598936 0.943569
v 0.943569 3.598936 -0.943569
v -0.943569 3.598936 -0.943569
v 1.007578 3.598936 1.007578
v -1.007578 3.598936 1.007578
v 1.007578 3.598936 -1.007578
v -1.007578 3.598936 -1.007578
v 0.943569 3.958784 0.943569
v -0.943569 3.958784 0.943569
v 0.943569 3.958784 -0.943569
v -0.943569 3.958784 -0.943569
vn -0.0000 -0.0000 -1.0000
vn -0.0000 -0.0000 1.0000
vn -1.0000 -0.0000 -0.0000
vn -0.0000 -1.0000 -0.0000
vn 1.0000 -0.0000 -0.0000
vn -0.0000 1.0000 -0.0000
vn -0.0000 -0.9388 -0.3444
vn 0.3444 -0.9388 -0.0000
vn -0.3444 -0.9388 -0.0000
vn -0.0000 -0.9388 0.3444
vt 0.664443 0.539443
vt 0.375000 0.500000
vt 0.664443 0.710557
vt 0.375000 0.750000
vt 0.835557 0.539443
vt 0.125000 0.500000
vt 0.375000 0.250000
vt 0.835557 0.710557
vt 0.375000 1.000000
vt 0.375000 0.000000
vt 0.125000 0.750000
vt 0.625000 0.750000
vt 0.625000 1.000000
vt 0.625000 0.000000
vt 0.875000 0.750000
vt 0.625000 0.500000
vt 0.625000 0.250000
vt 0.875000 0.500000
vt 0.692179 0.682821
vt 0.807821 0.682821
vt 0.692179 0.567179
vt 0.807821 0.567179
vt 0.664443 0.710557
vt 0.835557 0.710557
vt 0.664443 0.539443
vt 0.835557 0.539443
vt 0.692179 0.682821
vt 0.807821 0.682821
vt 0.692179 0.567179
vt 0.807821 0.567179
vt 0.692179 0.682821
vt 0.807821 0.682821
vt 0.692179 0.567179
vt 0.807821 0.567179
vt 0.695853 0.679148
vt 0.804148 0.679148
vt 0.695853 0.570853
vt 0.804148 0.570853
vt 0.692179 0.682821
vt 0.807821 0.682821
vt 0.692179 0.567179
vt 0.807821 0.567179
vt 0.695853 0.679148
vt 0.804148 0.679148
vt 0.695853 0.570853
vt 0.804148 0.570853
s 0
usemtl Material
f 1/1/1 5/5/1 20/26/1 19/25/1
f 4/4/2 9/12/2 10/13/2 8/9/2
f 8/10/3 10/14/3 12/17/3 6/7/3
f 6/6/4 2/2/4 4/4/4 8/11/4
f 2/2/5 11/16/5 9/12/5 4/4/5
f 6/7/1 12/17/1 11/16/1 2/2/1
f 3/3/6 7/8/6 10/15/6 9/12/6
f 1/1/6 3/3/6 9/12/6 11/16/6
f 7/8/6 5/5/6 12/18/6 10/15/6
f 5/5/6 1/1/6 11/16/6 12/18/6
f 16/22/3 14/20/3 22/28/3 24/30/3
f 3/3/5 1/1/5 19/25/5 17/23/5
f 5/5/3 7/8/3 18/24/3 20/26/3
f 7/8/2 3/3/2 17/23/2 18/24/2
f 13/19/6 14/20/6 18/24/6 17/23/6
f 15/21/6 13/19/6 17/23/6 19/25/6
f 14/20/6 16/22/6 20/26/6 18/24/6
f 16/22/6 15/21/6 19/25/6 20/26/6
f 23/29/7 24/30/7 28/34/7 27/33/7
f 14/20/2 13/19/2 21/27/2 22/28/2
f 15/21/1 16/22/1 24/30/1 23/29/1
f 13/19/5 15/21/5 23/29/5 21/27/5
f 25/31/5 27/33/5 35/41/5 33/39/5
f 21/27/8 23/29/8 27/33/8 25/31/8
f 24/30/9 22/28/9 26/32/9 28/34/9
f 22/28/10 21/27/10 25/31/10 26/32/10
f 31/37/1 32/38/1 40/46/1 39/45/1
f 28/34/3 26/32/3 34/40/3 36/42/3
f 26/32/2 25/31/2 33/39/2 34/40/2
f 27/33/1 28/34/1 36/42/1 35/41/1
f 29/35/6 30/36/6 34/40/6 33/39/6
f 31/37/6 29/35/6 33/39/6 35/41/6
f 30/36/6 32/38/6 36/42/6 34/40/6
f 32/38/6 31/37/6 35/41/6 36/42/6
f 39/45/6 40/46/6 38/44/6 37/43/6
f 29/35/5 31/37/5 39/45/5 37/43/5
f 32/38/3 30/36/3 38/44/3 40/46/3
f 30/36/2 29/35/2 37/43/2 38/44/2
